<svg version="1.1" viewBox="0.0 0.0 2560.0 540.0" fill="none" stroke="none" stroke-linecap="square" stroke-miterlimit="10" xmlns:xlink="http://www.w3.org/1999/xlink" xmlns="http://www.w3.org/2000/svg"><clipPath id="p.0"><path d="m0 0l2560.0 0l0 540.0l-2560.0 0l0 -540.0z" clip-rule="nonzero"/></clipPath><g clip-path="url(#p.0)"><path fill="#000000" fill-opacity="0.0" d="m0 0l2560.0 0l0 540.0l-2560.0 0z" fill-rule="evenodd"/><path fill="#000000" fill-opacity="0.0" d="m539.74805 179.49545l1864.252 -4.2204742l0 205.22835l-1864.252 4.220459z" fill-rule="evenodd"/><path fill="#000000" d="m699.3644 272.7412q0 7.3594055 -1.828125 13.160431q-1.8125 5.78537 -4.921875 10.214294q-3.09375 4.428894 -7.156189 7.578705q-4.046875 3.1498108 -8.46875 5.1441956q-4.421875 1.9943848 -8.9375 2.9108582q-4.499939 0.9164429 -8.468689 0.92541504l-48.609253 0.11004639l0 -21.484406l48.609253 -0.11004639q4.140625 -0.3531494 7.484314 -1.7200928q3.359375 -1.3669739 5.75 -3.684906q2.390625 -2.3335266 3.71875 -5.602173q1.328125 -3.2686462 1.328125 -7.3936462l0 -9.7656555q-0.421875 -4.045929 -1.75 -7.433548q-1.3125 -3.3876648 -3.59375 -5.7731323q-2.265625 -2.401123 -5.5 -3.753189q-3.218689 -1.3520813 -7.437439 -1.3425446l-48.437378 0.10966492q-4.3125 0.009765625 -6.546875 2.2492065q-2.21875 2.2393951 -2.21875 6.4425354l0 88.39084l-21.499939 0.048675537l0 -88.39084q0 -8.2656555 3.015625 -14.053741q3.015625 -5.803711 7.515625 -9.360794q4.515564 -3.5727234 9.796814 -5.1940613q5.296875 -1.6213684 9.765625 -1.631485l48.609253 -0.11004639q7.281189 -0.016479492 13.062439 1.8298035q5.796875 1.8462524 10.21875 4.945633q4.421875 3.0837402 7.515564 7.1392517q3.109375 4.0398407 5.125 8.457169q2.03125 4.417282 2.9375 8.915253q0.921875 4.497925 0.921875 8.466675l0 9.7656555zm136.83203 -10.075409q0 7.359375 -1.828125 13.1604q-1.8125 5.78537 -4.921814 10.214294q-3.09375 4.428894 -7.15625 7.5943604q-4.046875 3.1497803 -8.46875 5.19104q-4.421875 2.0256653 -8.921814 2.9420776q-4.5 0.9164429 -8.46875 0.92544556l44.890503 38.679718l-33.234314 0.07522583l-44.812378 -38.6799l-15.468689 0.03503418l0 -21.500061l48.624878 -0.110076904q4.046875 -0.33728027 7.390625 -1.7042236q3.34375 -1.3669739 5.781189 -3.6849976q2.453125 -2.3336792 3.765625 -5.6022644q1.328125 -3.2686462 1.328125 -7.4874268l0 -13.54689q0 -1.8281403 -0.453125 -2.764618q-0.453125 -0.95210266 -1.15625 -1.4036255q-0.703125 -0.4671631 -1.5 -0.54348755q-0.78125 -0.07635498 -1.4375 -0.07487488l-70.93732 0.16059875l0 97.06276l-21.499939 0.048675537l0 -107.734665q0 -2.234375 0.828125 -4.220627q0.828125 -1.9862671 2.265625 -3.4738922q1.453125 -1.4876709 3.4375 -2.320282q1.984375 -0.83262634 4.296875 -0.8378601l81.60913 -0.18475342q7.1875 -0.016281128 12.140625 2.581894q4.96875 2.5825043 8.0625 6.5130157q3.109314 3.9148407 4.468689 8.458649q1.375 4.5437775 1.375 8.512543l0 13.718796zm146.01227 30.43512q0 10.8281555 -3.734375 19.93039q-3.71875 9.102203 -10.328064 15.7421875q-6.609375 6.6243286 -15.671875 10.332367q-9.046814 3.6923523 -19.718689 3.7165222l-29.093689 0.06585693q-10.671814 0.024169922 -19.765564 -3.6271362q-9.093689 -3.6669006 -15.718689 -10.2612915q-6.609375 -6.610077 -10.375 -15.6953125q-3.749939 -9.085297 -3.749939 -19.913452l0 -22.65628q0 -10.7500305 3.749939 -19.88356q3.765625 -9.14917 10.375 -15.742279q6.625 -6.5931396 15.718689 -10.332474q9.09375 -3.7393494 19.765564 -3.7635193l29.093689 -0.06585693q10.671875 -0.024154663 19.718689 3.674118q9.0625 3.6982422 15.671875 10.261414q6.609314 6.5631866 10.328064 15.695419q3.734375 9.116577 3.734375 19.866608l0 22.65628zm-21.499939 -22.607635q0 -6.359375 -2.03125 -11.526672q-2.015625 -5.1673126 -5.703125 -8.830856q-3.671814 -3.6791992 -8.843689 -5.6831207q-5.171875 -2.0195465 -11.375 -2.0055084l-29.093689 0.06587219q-6.281189 0.014221191 -11.453064 2.05719q-5.171875 2.0273285 -8.890625 5.7232666q-3.71875 3.6802979 -5.749939 8.856781q-2.015625 5.1764526 -2.015625 11.535858l0 22.656311q0 6.359375 2.015625 11.526703q2.031189 5.1672974 5.749939 8.8463745q3.71875 3.6634827 8.890625 5.683014q5.171875 2.0039368 11.453064 1.9897156l28.937439 -0.06552124q6.28125 -0.014221191 11.4375 -2.0415344q5.171875 -2.0429688 8.890564 -5.7232666q3.734375 -3.6959534 5.75 -8.872406q2.03125 -5.176483 2.03125 -11.535889l0 -22.656311zm140.64355 40.1192q0 6.4375305 -2.234375 11.989471q-2.234375 5.536316 -6.25 9.607941q-4.0 4.0559387 -9.546875 6.3497314q-5.546753 2.2781982 -12.078003 2.2929993l-78.78107 0.17834473l0 -21.500061l78.78107 -0.17834473q3.96875 -0.009002686 6.203125 -2.2796936q2.234375 -2.286316 2.234375 -6.411316l0 -88.390854l21.671753 -0.049057007l0 88.39084zm122.11572 -18.55774l-67.8905 0.15368652l0 -21.656311l67.8905 -0.15368652l0 21.656311zm9.671875 48.431366l-77.56238 0.17556763q-4.453003 0.010101318 -9.749878 -1.5404053q-5.296875 -1.5661621 -9.796875 -5.149719q-4.5 -3.5835876 -7.53125 -9.326721q-3.015625 -5.7431946 -3.015625 -14.086975l0 -77.56268q0 -2.2343903 0.828125 -4.220642q0.828125 -1.9862518 2.265625 -3.4738922q1.453125 -1.4876709 3.4375 -2.320282q1.984375 -0.83262634 4.296875 -0.8378601l96.82788 -0.21920776l0 21.500061l-86.156006 0.19503784l0 66.89079q0 4.2031555 2.234375 6.4324646q2.234375 2.2293396 6.531128 2.2196045l77.3905 -0.17520142l0 21.500061zm126.16113 -0.28564453l-77.54675 0.17556763q-2.984375 0.0067749023 -6.421875 -0.68859863q-3.421753 -0.69537354 -6.765503 -2.1721802q-3.34375 -1.4768066 -6.40625 -3.8292542q-3.0625 -2.3524475 -5.421875 -5.690857q-2.359375 -3.3540344 -3.765625 -7.7727356q-1.40625 -4.4187317 -1.40625 -9.949982l0 -58.218903q0 -2.96875 0.703125 -6.392227q0.703125 -3.4391022 2.1875 -6.7862244q1.5 -3.3627777 3.890625 -6.4150696q2.40625 -3.0679626 5.75 -5.434906q3.34375 -2.3669586 7.71875 -3.7831116q4.390503 -1.4161987 9.937378 -1.4287567l77.54675 -0.17555237l0 21.500061l-77.54675 0.17555237q-4.21875 0.009552002 -6.453125 2.248993q-2.234375 2.239441 -2.234375 6.614441l0 58.047028q0 4.125 2.265625 6.4011536q2.28125 2.2604675 6.421875 2.251068l77.54675 -0.17553711l0 21.50003zm127.49963 -97.35138l-47.374878 0.10725403l0 97.06276l-21.5 0.04864502l0 -97.06273l-47.453003 0.107421875l0 -21.500061l116.32788 -0.26335144l0 21.500061z" fill-rule="nonzero"/><path fill="#cc0000" d="m1577.491 269.597l75.49988 -0.17092896l0 -48.453262l21.484253 -0.04862976l0 118.562805l-21.484253 0.04864502l0 -48.453247l-75.49988 0.17089844l0 48.453247l-21.484375 0.04864502l0 -118.562805l21.484375 -0.04862976l0 48.453262zm246.56067 21.598114q0 10.8281555 -3.734375 19.930359q-3.71875 9.102203 -10.328125 15.7421875q-6.609375 6.624359 -15.671753 10.332367q-9.046875 3.6923828 -19.71875 3.7165222l-29.093628 0.06588745q-10.671875 0.024139404 -19.765625 -3.6271362q-9.09375 -3.6669312 -15.71875 -10.261322q-6.609375 -6.6100464 -10.374878 -15.6953125q-3.75 -9.085266 -3.75 -19.913422l0 -22.656311q0 -10.7500305 3.75 -19.883545q3.765503 -9.14917 10.374878 -15.742279q6.625 -6.5931396 15.71875 -10.332489q9.09375 -3.7393494 19.765625 -3.763504l29.093628 -0.06587219q10.671875 -0.024154663 19.71875 3.674118q9.062378 3.6982422 15.671753 10.261429q6.609375 6.5631714 10.328125 15.695404q3.734375 9.116577 3.734375 19.866608l0 22.656311zm-21.5 -22.607635q0 -6.3594055 -2.03125 -11.526703q-2.015625 -5.1673126 -5.703003 -8.830841q-3.671875 -3.6791992 -8.84375 -5.6831207q-5.171875 -2.0195465 -11.375 -2.0055084l-29.093628 0.06587219q-6.28125 0.014205933 -11.453125 2.0571747q-5.171875 2.0273438 -8.890625 5.7232666q-3.71875 3.680313 -5.75 8.856781q-2.015625 5.1764526 -2.015625 11.535858l0 22.656311q0 6.359375 2.015625 11.526703q2.03125 5.1672974 5.75 8.8463745q3.71875 3.6634827 8.890625 5.683014q5.171875 2.0039368 11.453125 1.9897156l28.937378 -0.06552124q6.28125 -0.014221191 11.4375 -2.041504q5.171875 -2.0429688 8.890625 -5.7232666q3.734253 -3.695984 5.749878 -8.872437q2.03125 -5.176483 2.03125 -11.535858l0 -22.656311zm161.22815 -8.474396q0 7.359375 -1.828125 13.1604q-1.8125 5.78537 -4.921875 10.214294q-3.09375 4.428894 -7.15625 7.5943604q-4.046875 3.1497803 -8.46875 5.19104q-4.421753 2.0256653 -8.921753 2.9421082q-4.5 0.91641235 -8.46875 0.92541504l44.890503 38.679718l-33.234253 0.07522583l-44.812378 -38.67987l-15.46875 0.035003662l0 -21.500061l48.624878 -0.110076904q4.046875 -0.33728027 7.390625 -1.7042236q3.34375 -1.3669434 5.78125 -3.684967q2.453003 -2.3337097 3.765503 -5.602295q1.328125 -3.2686462 1.328125 -7.4873962l0 -13.546921q0 -1.8281403 -0.453125 -2.7646027q-0.453125 -0.95210266 -1.15625 -1.4036407q-0.703125 -0.4671631 -1.5 -0.54348755q-0.7811279 -0.07635498 -1.4373779 -0.07485962l-70.93738 0.1605835l0 97.06276l-21.5 0.048675537l0 -107.734665q0 -2.234375 0.828125 -4.220627q0.828125 -1.9862518 2.265625 -3.4738922q1.453125 -1.4876709 3.4375 -2.320282q1.984375 -0.83262634 4.296875 -0.8378601l81.60925 -0.18475342q7.187378 -0.01626587 12.140503 2.581894q4.96875 2.5825043 8.0625 6.5130157q3.109375 3.9148407 4.46875 8.458649q1.375 4.5437775 1.375 8.512543l0 13.718796zm43.231323 78.62106l-21.484253 0.04864502l0 -118.562805l21.484253 -0.04864502l0 118.562805zm126.59338 -112.396255q1.234375 2.887848 0.734375 6.076477q-0.484375 3.172989 -2.640625 5.4122467l-70.9375 79.2858l72.671875 -0.16452026l0 21.500061l-96.90613 0.21939087q-3.140503 0.0071105957 -5.828003 -1.7680664q-2.6875 -1.775177 -4.0 -4.662842q-1.40625 -2.8874512 -0.875 -6.0292664q0.546875 -3.1418762 2.609375 -5.4590454l71.10913 -79.286194l-72.843506 0.16490173l0 -21.500061l97.062256 -0.21972656q3.140625 -0.0071105957 5.828125 1.7680511q2.6875 1.775177 4.015625 4.662796zm142.4563 63.833908q0 10.8281555 -3.734375 19.93039q-3.71875 9.102173 -10.328125 15.742157q-6.609375 6.624359 -15.671875 10.332397q-9.046875 3.6923523 -19.71875 3.7165222l-29.093506 0.06585693q-10.671875 0.024169922 -19.765625 -3.6271362q-9.09375 -3.6669312 -15.71875 -10.261322q-6.609375 -6.6100464 -10.375 -15.695282q-3.75 -9.085297 -3.75 -19.913452l0 -22.656311q0 -10.7500305 3.75 -19.88353q3.765625 -9.14917 10.375 -15.742279q6.625 -6.5931396 15.71875 -10.332489q9.09375 -3.7393494 19.765625 -3.763504l29.093506 -0.06587219q10.671875 -0.024154663 19.71875 3.674118q9.0625 3.6982422 15.671875 10.261429q6.609375 6.5631714 10.328125 15.695404q3.734375 9.116562 3.734375 19.866592l0 22.656311zm-21.5 -22.607635q0 -6.359375 -2.03125 -11.526672q-2.015625 -5.167328 -5.703125 -8.830872q-3.671875 -3.679184 -8.84375 -5.6831055q-5.171875 -2.0195465 -11.375 -2.0055084l-29.093506 0.06585693q-6.28125 0.014221191 -11.453125 2.05719q-5.171875 2.0273438 -8.890625 5.7232666q-3.71875 3.6802979 -5.75 8.856796q-2.015625 5.1764526 -2.015625 11.535828l0 22.656311q0 6.3594055 2.015625 11.526733q2.03125 5.167267 5.75 8.8463745q3.71875 3.6634521 8.890625 5.683014q5.171875 2.0039062 11.453125 1.989685l28.937256 -0.06549072q6.28125 -0.014221191 11.4375 -2.0415344q5.171875 -2.0429688 8.890625 -5.7232666q3.734375 -3.6959534 5.75 -8.872406q2.03125 -5.176483 2.03125 -11.535889l0 -22.656311zm161.22803 61.072662q0 2.3125 -0.875 4.2988586q-0.859375 1.9863281 -2.3125 3.442749q-1.453125 1.4407959 -3.4375 2.273407q-1.984375 0.8326111 -4.203125 0.8376465q-1.984375 0.004486084 -4.015625 -0.74090576q-2.03125 -0.72976685 -3.59375 -2.3825073l-78.54663 -81.838l0 83.5002l-21.5 0.048675537l0 -109.3909q0 -3.2968903 1.859375 -5.9886017q1.859375 -2.6917114 4.75 -4.0263824q3.0625 -1.2413177 6.28125 -0.6235962q3.234375 0.6020508 5.546875 3.003067l78.54663 81.74428l0 -83.50023l21.5 -0.048675537l0 109.390915z" fill-rule="nonzero"/><path fill="#000000" fill-opacity="0.0" d="m312.56418 133.3367l0 137.31235" fill-rule="evenodd"/><path stroke="#000000" stroke-width="16.0" stroke-linejoin="round" stroke-linecap="round" d="m312.56418 133.3367l0 137.31235" fill-rule="evenodd"/><path fill="#000000" fill-opacity="0.0" d="m312.56448 270.64822l-134.9479 77.9169" fill-rule="evenodd"/><path stroke="#000000" stroke-width="16.0" stroke-linejoin="round" stroke-linecap="round" d="m312.56448 270.64822l-134.9479 77.9169" fill-rule="evenodd"/><path fill="#000000" fill-opacity="0.0" d="m344.81976 133.3367l0 155.96512" fill-rule="evenodd"/><path stroke="#cc0000" stroke-width="16.0" stroke-linejoin="round" stroke-linecap="round" d="m344.81976 133.3367l0 155.96512" fill-rule="evenodd"/><path fill="#000000" fill-opacity="0.0" d="m344.82004 289.27182l118.9223 68.67807" fill-rule="evenodd"/><path stroke="#cc0000" stroke-width="16.0" stroke-linejoin="round" stroke-linecap="round" d="m344.82004 289.27182l118.9223 68.67807" fill-rule="evenodd"/><path fill="#000000" fill-opacity="0.0" d="m463.74234 357.9499l-118.9223 68.67807" fill-rule="evenodd"/><path stroke="#cc0000" stroke-width="16.0" stroke-linejoin="round" stroke-linecap="round" d="m463.74234 357.9499l-118.9223 68.67807" fill-rule="evenodd"/><path fill="#000000" fill-opacity="0.0" d="m177.52141 348.6827l135.03548 77.96066" fill-rule="evenodd"/><path stroke="#000000" stroke-width="16.0" stroke-linejoin="round" stroke-linecap="round" d="m177.52141 348.6827l135.03548 77.96066" fill-rule="evenodd"/><path fill="#000000" fill-opacity="0.0" d="m463.74207 201.97646l0 155.96513" fill-rule="evenodd"/><path stroke="#cc0000" stroke-width="16.0" stroke-linejoin="round" stroke-linecap="round" d="m463.74207 201.97646l0 155.96513" fill-rule="evenodd"/><path fill="#000000" fill-opacity="0.0" d="m344.82004 289.27182l-102.96236 59.43924" fill-rule="evenodd"/><path stroke="#cc0000" stroke-width="16.0" stroke-linejoin="round" stroke-linecap="round" d="m344.82004 289.27182l-102.96236 59.43924" fill-rule="evenodd"/><path fill="#000000" fill-opacity="0.0" d="m177.61687 348.56512l0 -137.31236" fill-rule="evenodd"/><path stroke="#000000" stroke-width="16.0" stroke-linejoin="round" stroke-linecap="round" d="m177.61687 348.56512l0 -137.31236" fill-rule="evenodd"/><path fill="#000000" fill-opacity="0.0" d="m177.61658 211.25359l134.9479 -77.916885" fill-rule="evenodd"/><path stroke="#000000" stroke-width="16.0" stroke-linejoin="round" stroke-linecap="round" d="m177.61658 211.25359l134.9479 -77.916885" fill-rule="evenodd"/></g></svg>